<svg width="33" height="31" viewBox="0 0 33 31" fill="none" xmlns="http://www.w3.org/2000/svg">
<path d="M28.1914 12.6274C28.1914 12.2478 28.0376 11.8838 27.764 11.6154C27.4903 11.347 27.1192 11.1963 26.7322 11.1963C26.3452 11.1963 25.974 11.347 25.7004 11.6154C25.4267 11.8838 25.273 12.2478 25.273 12.6274H28.1914ZM7.76281 12.6274C7.76281 12.2478 7.60907 11.8838 7.33542 11.6154C7.06177 11.347 6.69062 11.1963 6.30362 11.1963C5.91662 11.1963 5.54548 11.347 5.27183 11.6154C4.99818 11.8838 4.84444 12.2478 4.84444 12.6274H7.76281ZM28.6189 16.5014C28.8941 16.7621 29.2627 16.9064 29.6453 16.9031C30.0279 16.8999 30.3939 16.7493 30.6644 16.484C30.935 16.2187 31.0884 15.8597 31.0918 15.4845C31.0951 15.1092 30.948 14.7477 30.6822 14.4778L28.6189 16.5014ZM16.5179 2.60953L17.5496 1.59772C17.2759 1.32943 16.9048 1.17871 16.5179 1.17871C16.131 1.17871 15.7599 1.32943 15.4863 1.59772L16.5179 2.60953ZM2.35361 14.4778C2.21425 14.6098 2.10308 14.7678 2.02661 14.9424C1.95013 15.117 1.90988 15.3048 1.9082 15.4948C1.90651 15.6848 1.94343 15.8733 2.0168 16.0491C2.09017 16.225 2.19852 16.3848 2.33553 16.5192C2.47253 16.6535 2.63545 16.7598 2.81478 16.8318C2.99411 16.9037 3.18626 16.9399 3.38001 16.9383C3.57375 16.9366 3.76523 16.8972 3.94325 16.8222C4.12128 16.7471 4.28229 16.6381 4.4169 16.5014L2.35361 14.4778ZM9.22199 29.8009H23.8138V26.9386H9.22199V29.8009ZM28.1914 25.5075V12.6274H25.273V25.5075H28.1914ZM7.76281 25.5075V12.6274H4.84444V25.5075H7.76281ZM30.6822 14.4778L17.5496 1.59772L15.4863 3.62133L28.6189 16.5014L30.6822 14.4778ZM15.4863 1.59772L2.35361 14.4778L4.4169 16.5014L17.5496 3.62133L15.4863 1.59772ZM23.8138 29.8009C24.9748 29.8009 26.0883 29.3485 26.9092 28.5434C27.7302 27.7382 28.1914 26.6462 28.1914 25.5075H25.273C25.273 25.887 25.1193 26.2511 24.8456 26.5194C24.572 26.7878 24.2008 26.9386 23.8138 26.9386V29.8009ZM9.22199 26.9386C8.83499 26.9386 8.46384 26.7878 8.19019 26.5194C7.91654 26.2511 7.76281 25.887 7.76281 25.5075H4.84444C4.84444 26.6462 5.30564 27.7382 6.1266 28.5434C6.94755 29.3485 8.06099 29.8009 9.22199 29.8009V26.9386Z" fill="#81E6D9"/>
</svg>
