<svg width="100" height="100" viewBox="0 0 100 100" fill="none" xmlns="http://www.w3.org/2000/svg">
<path d="M33.0417 46.8334C32.6533 46.3406 32.089 46.0175 31.4674 45.932C30.8458 45.8466 30.2153 46.0054 29.7083 46.375C29.4167 46.625 29.1667 46.9167 29 47.25L8.58335 88.125C7.95835 89.3334 8.45835 90.7917 9.66668 91.4167C10 91.6667 10.4167 91.6667 10.7917 91.6667H39.2083C40.125 91.6667 41 91.1667 41.4167 90.3334C47.5417 77.625 43.75 58.3334 33.0417 46.8334ZM48.0417 9.62503C42.9605 17.4719 39.9982 26.501 39.4433 35.8329C38.8883 45.1647 40.7597 54.4812 44.875 62.875L58.5834 90.3334C59.0417 91.1667 59.875 91.6667 60.7917 91.6667H89.2083C89.8603 91.6667 90.4856 91.4077 90.9466 90.9467C91.4077 90.4856 91.6667 89.8604 91.6667 89.2084C91.6667 88.8334 91.6667 88.4584 91.4167 88.125C91.4167 88.125 53.1667 11.5417 52.0834 9.62503C51.9634 9.35215 51.7885 9.10696 51.5695 8.90478C51.3504 8.7026 51.0921 8.54778 50.8105 8.45001C50.5289 8.35224 50.2302 8.31362 49.933 8.33657C49.6358 8.35951 49.3466 8.44353 49.0833 8.58336C48.625 8.7917 48.25 9.1667 48.0417 9.62503Z" fill="#888888"/>
</svg>
