<svg width="131" height="127" viewBox="0 0 131 127" fill="none" xmlns="http://www.w3.org/2000/svg">
<path d="M128.683 123.889L125.994 121.327C124.713 119.63 123.28 118.052 121.713 116.613L121.687 116.591C120.107 115.156 118.464 113.79 116.76 112.496C115.395 111.557 113.518 110.427 111.13 109.104C109.192 108.243 107.648 106.687 106.802 104.743L106.78 104.69L106.526 104.563C107.648 104.452 108.675 104.246 109.659 103.955L109.537 103.987L112.554 103.156C113.802 102.764 115.247 102.51 116.745 102.452H116.776C118.353 102.389 119.84 102.135 121.258 101.716L121.126 101.748C121.81 101.579 122.514 101.387 123.237 101.171C123.961 100.956 124.58 100.764 125.095 100.595V99.7003C124.583 98.9348 123.964 98.0599 123.237 97.0757C122.563 96.1548 121.776 95.3227 120.893 94.5992L120.867 94.578C118.648 92.6166 116.35 90.7186 113.972 88.8842C111.743 87.1523 109.427 85.5345 107.034 84.037L106.675 83.8253C105.295 82.9233 103.833 82.1526 102.309 81.5235L102.129 81.46C100.549 80.8179 98.9911 80.1141 97.4565 79.3486C96.9037 79.0778 96.3236 78.8668 95.7261 78.7189L95.6679 78.7083C95.071 78.5896 94.5309 78.2748 94.1333 77.814L94.128 77.8087C93.3773 76.8121 92.7468 75.7304 92.2495 74.5861L92.2072 74.4803C91.6956 73.2843 91.1418 72.1361 90.5456 71.0354C89.265 68.5589 88.0267 66.0418 86.8308 63.4842C85.6349 60.9265 84.4866 58.3654 83.3859 55.8007C82.6204 54.0932 81.9166 52.3876 81.2746 50.6836C80.6252 48.9468 79.8082 47.2773 78.8351 45.6989L78.9039 45.8206C76.7952 42.2053 74.442 38.7382 71.8607 35.4436L72.0089 35.6447C69.6469 32.6532 67.0663 29.8409 64.2883 27.231L64.246 27.1939C61.5141 24.6308 58.6302 22.2346 55.61 20.0184L55.3507 19.8332C52.1898 17.5366 48.7326 15.2753 44.979 13.0493C43.3835 12.1187 41.6643 11.4185 39.8726 10.9697L39.735 10.9379L33.8454 9.46685L30.5169 9.21285C29.4092 9.12818 28.2997 9.08585 27.1884 9.08585C26.4391 8.69365 25.7495 8.19651 25.1406 7.60947C24.552 7.04963 23.9281 6.52821 23.2726 6.04843L23.2197 6.01139C19.7823 4.02787 16.162 2.37985 12.4088 1.09014L11.959 0.952558C11.0256 0.418532 9.98402 0.101303 8.9114 0.0243594C7.83877 -0.0525841 6.76257 0.112729 5.76249 0.508058L5.81011 0.492183C4.82531 0.878378 3.93775 1.47692 3.21063 2.24521C2.4835 3.0135 1.93468 3.93263 1.60324 4.93718L1.58736 4.9901C1.02582 6.33857 0.843385 7.81484 1.05975 9.25945C1.27611 10.7041 1.88306 12.0621 2.81503 13.1869L2.80444 13.171C4.72355 15.7287 6.19464 17.7395 7.21769 19.2035C7.98322 20.2301 8.77344 21.2973 9.58836 22.405C10.3345 23.3998 10.9959 24.5375 11.5304 25.7387L11.5727 25.8498C11.8691 26.4796 12.1284 27.231 12.3189 28.0036L12.3347 28.0882C12.5041 28.8149 12.7175 29.6052 12.975 30.4589C13.7406 32.4203 14.4655 34.4312 15.1499 36.4914C15.896 38.7403 16.7215 40.6453 17.6793 42.4604L17.5788 42.2487C18.0903 43.1871 18.6036 44.1043 19.1187 45.0004C19.6337 45.8964 20.1876 46.7713 20.7802 47.6251C21.1163 48.1322 21.5498 48.5674 22.0555 48.9056L22.0714 48.9162C22.3364 49.1063 22.5546 49.3542 22.7096 49.6412C22.8645 49.9282 22.9521 50.2467 22.9657 50.5725C22.3414 51.4999 21.9477 52.5684 21.8174 53.6787L21.8121 53.7105C21.6461 54.957 21.3753 56.1872 21.0025 57.3882L21.0448 57.2294C19.8 61.0404 19.173 65.026 19.1874 69.0351C19.1874 70.4004 19.2562 71.7445 19.3991 73.0727L19.3832 72.9086C19.7007 77.9781 21.23 82.6347 23.6801 86.667L23.606 86.5347C24.6484 88.0957 25.765 89.4557 26.9979 90.6992C27.7142 91.5049 28.6791 92.0482 29.7395 92.2428C30.7998 92.4375 31.8948 92.2722 32.8505 91.7734L32.8241 91.784C33.741 91.4608 34.5411 90.8721 35.1225 90.0928C35.7039 89.3135 36.0404 88.3789 36.089 87.4078V87.3972C36.343 84.889 36.724 82.6453 37.2479 80.4546L37.1791 80.8091C37.3132 80.4522 37.3813 80.0738 37.3802 79.6926L37.3696 79.4544V79.465C37.3273 79.0805 37.5619 78.7171 38.0734 78.3749V78.6289C38.5849 79.8248 39.1176 81.019 39.6715 82.2114C40.2253 83.4038 40.8004 84.5979 41.3966 85.7938C42.9576 88.1698 44.6139 90.2441 46.4342 92.1544L46.4184 92.1386C48.2292 94.094 50.2266 95.8681 52.3821 97.4355L52.4985 97.5149C53.6203 98.3721 54.6046 99.2982 55.4936 100.309L55.5147 100.33C56.3508 101.314 57.3509 102.124 58.4781 102.732L58.531 102.759V102.632H58.785C58.5842 102.183 58.2522 101.804 57.8325 101.547L57.8219 101.542C57.4337 101.328 57.0606 101.087 56.7054 100.822L56.7318 100.838C55.9663 100.073 55.1761 99.2188 54.3612 98.2769C53.5462 97.335 52.8001 96.4389 52.1228 95.5887C50.3307 93.1122 48.6215 90.5246 46.9952 87.8258C45.3688 85.1271 43.8325 82.3842 42.3861 79.5973C41.7017 78.2321 41.0403 76.8245 40.4017 75.3746C39.7632 73.9246 39.1441 72.5171 38.5444 71.1518C38.2729 70.5969 38.1009 69.9987 38.0364 69.3844V69.3579C38.0221 69.0673 37.9327 68.7853 37.7769 68.5395C37.621 68.2937 37.4041 68.0926 37.1474 67.9556L37.1368 67.9503C36.5309 68.9918 35.8064 69.9596 34.9778 70.8343L34.9831 70.829C34.1332 71.7246 33.4488 72.7637 32.9617 73.8982L32.9352 73.967C32.1431 75.9212 31.6284 77.9767 31.4059 80.0736L31.3953 80.1741C31.1413 82.4354 30.8856 84.7602 30.628 87.1485L30.374 87.2755L30.247 87.4025C29.5846 87.2697 28.9604 86.9902 28.4201 86.5845C27.8799 86.1789 27.4373 85.6574 27.1249 85.0583L27.1144 85.0318C26.4723 83.7936 25.8973 82.5765 25.3893 81.3806C24.0031 77.7537 23.2461 73.9169 23.1509 70.0353V69.9876C22.8761 65.8401 23.3896 61.678 24.6643 57.7216L24.6008 57.9544C24.8548 57.016 25.4087 55.4356 26.2624 53.2131C27.1161 50.9906 27.2872 49.4542 26.7757 48.604C26.5233 47.7626 26.037 47.0101 25.3734 46.4344L25.3681 46.4291C24.7356 45.8813 24.1432 45.2889 23.5954 44.6564L23.5795 44.6353C22.9833 43.7745 22.4083 42.8573 21.8544 41.8836C21.3006 40.9099 20.8102 39.9504 20.3834 39.0049C19.398 36.6733 18.5603 34.2821 17.8751 31.8453L17.7587 31.3743C17.0058 28.6515 16.0397 25.9922 14.8694 23.421L15.007 23.7596C14.4596 22.5031 13.7669 21.315 12.9433 20.2195L12.975 20.2618C12.1142 19.1118 11.3452 18.0235 10.6679 16.9969C9.80708 15.8892 8.95336 14.822 8.10669 13.7954C7.22443 12.7268 6.46804 11.5603 5.85244 10.3188L5.80482 10.213C5.53407 9.66018 5.32298 9.08011 5.17511 8.4826L5.16453 8.42439C5.07362 8.12377 5.04972 7.80688 5.09452 7.49603C5.13932 7.18518 5.25172 6.88794 5.42382 6.62522L5.41853 6.63581C5.4751 6.34967 5.60866 6.08438 5.80482 5.86852C6.01906 5.67703 6.28012 5.54559 6.56153 5.48752H6.57211C6.98961 5.21674 7.46957 5.05754 7.96613 5.02512C8.46269 4.99269 8.95927 5.08813 9.40844 5.30231L9.39257 5.29702C10.5514 5.6251 11.4881 5.95318 12.4035 6.32889L12.213 6.2601C13.8323 6.94449 15.3263 7.60595 16.6951 8.24447C18.272 8.99589 19.6161 9.78964 20.8861 10.6733L20.7908 10.6099C21.4752 11.0367 22.1578 11.5059 22.8387 12.0174C23.5196 12.529 24.2445 13.0423 25.0136 13.5573H26.8074C28.1727 13.5573 29.6226 13.6226 31.1572 13.7531C32.7077 13.8748 34.1417 14.1658 35.5069 14.6209L35.3799 14.5839C37.9252 15.3406 40.1107 16.2349 42.185 17.3091L41.9681 17.2086C44.06 18.2739 46.0444 19.4046 47.9212 20.6005C51.038 22.5426 53.7314 24.5322 56.2662 26.7071L56.1762 26.633C58.822 28.8978 61.2244 31.2209 63.4787 33.6762L63.5316 33.7397C65.7329 36.1421 67.8337 38.7509 69.7546 41.4867L69.9187 41.7354C71.6861 44.2331 73.4694 47.1223 75.0727 50.1174L75.295 50.5672C75.7675 51.4854 76.1811 52.4328 76.5332 53.4036L76.5914 53.5782C76.9336 54.5589 77.3164 55.5643 77.7397 56.5944C78.6781 58.7287 79.6835 60.8824 80.756 63.0556C81.8284 65.2287 82.8338 67.3418 83.7722 69.395L86.5874 75.5386C87.5769 77.687 88.6829 79.5391 89.9688 81.2483L89.9106 81.1689C90.9848 82.3172 92.4188 83.1216 94.0275 83.402L94.0698 83.4073C96.0171 83.8941 97.6576 84.4445 99.2451 85.0953L98.9964 85.0054C99.7531 85.3493 100.727 85.7145 101.727 86.0373L101.939 86.0955C103.06 86.4394 104.034 86.8945 104.928 87.466L104.881 87.4396C106.611 88.4079 108.077 89.3604 109.474 90.3976L109.363 90.3182C110.813 91.3836 112.263 92.389 113.712 93.3345C114.397 93.846 115.545 94.5921 117.157 95.5728C118.77 96.5536 119.623 97.4708 119.719 98.3245C116.476 98.2121 113.231 98.3661 110.014 98.7849L110.31 98.7531C107.623 99.102 104.993 99.7956 102.484 100.817L102.695 100.743C102.03 101.025 101.344 101.253 100.642 101.425L100.542 101.447C100.177 101.499 99.8405 101.672 99.5855 101.937C99.3304 102.203 99.1715 102.546 99.1339 102.912C99.4567 103.315 99.716 103.786 99.8907 104.294L99.9012 104.325C100.081 104.865 100.298 105.331 100.563 105.765L100.547 105.733C101.177 106.849 101.854 107.812 102.616 108.701L102.595 108.675C103.341 109.596 104.182 110.395 105.114 111.077L105.151 111.104C106.011 111.788 106.907 112.492 107.839 113.215C108.691 113.882 109.654 114.538 110.654 115.131L110.781 115.2C112.284 116.12 114.03 116.999 115.85 117.734L116.094 117.819C118.073 118.613 119.771 119.534 121.348 120.629L121.264 120.571C122.29 121.167 123.313 121.828 124.333 122.555C125.352 123.282 126.333 123.986 127.275 124.666C127.661 125.047 128 125.471 128.286 125.931L128.302 125.958C128.79 126.52 129.468 126.884 130.207 126.979H130.222V126.725C129.755 126.371 129.413 125.875 129.249 125.312L129.244 125.291C129.122 124.781 128.922 124.294 128.651 123.846L128.661 123.867L128.683 123.889ZM30.3846 22.2621C29.7002 22.2621 29.0599 22.2833 28.4637 22.3256C27.8821 22.363 27.3076 22.4751 26.7545 22.659L26.8022 22.6431V22.7701H27.0562C27.3983 23.2816 27.8287 23.8567 28.3473 24.4952C28.8659 25.1337 29.3351 25.7528 29.7549 26.3526L31.8028 30.5753L32.0568 30.4483C32.6527 30.0193 33.115 29.4304 33.3903 28.7497L33.4009 28.7232C33.676 27.9877 33.8348 27.1304 33.8348 26.2414L33.8295 25.9557V25.9716C33.5895 25.7382 33.3957 25.4617 33.258 25.1566L33.2527 25.1408L32.8241 24.1777C32.5496 23.7393 32.1571 23.3872 31.6917 23.1617L31.6758 23.1564C31.2003 22.9293 30.7643 22.6274 30.3846 22.2621Z" fill="#888888"/>
</svg>
