<svg width="100" height="100" viewBox="0 0 100 100" fill="none" xmlns="http://www.w3.org/2000/svg">
<g clip-path="url(#clip0_29_131)">
<path d="M98.1125 45.5437L54.45 1.88748C53.8522 1.28937 53.1424 0.814898 52.3611 0.491185C51.5799 0.167471 50.7425 0.000854492 49.8969 0.000854492C49.0512 0.000854492 48.2138 0.167471 47.4326 0.491185C46.6514 0.814898 45.9416 1.28937 45.3437 1.88748L36.2812 10.95L47.7812 22.45C49.1375 21.9869 50.5967 21.9145 51.9921 22.2409C53.3876 22.5674 54.6632 23.2795 55.6733 24.2962C56.6835 25.3128 57.3874 26.593 57.7049 27.9905C58.0223 29.3881 57.9405 30.8467 57.4687 32.2L68.55 43.2875C70.1894 42.7102 71.9766 42.7085 73.6172 43.2825C75.2578 43.8566 76.6539 44.9721 77.5759 46.4456C78.4978 47.9191 78.8904 49.6625 78.6892 51.389C78.488 53.1154 77.7048 54.7218 76.4687 55.9437C75.2174 57.2028 73.5677 57.9883 71.8016 58.1661C70.0354 58.3439 68.2623 57.903 66.7851 56.9187C65.3079 55.9344 64.2182 54.4677 63.7023 52.7693C63.1863 51.0708 63.2761 49.2459 63.9562 47.6062L53.625 37.2687V64.475C55.1953 65.2523 56.4519 66.5444 57.1851 68.1358C57.9183 69.7272 58.084 71.5219 57.6544 73.2206C57.2249 74.9194 56.2261 76.4196 54.8245 77.4712C53.423 78.5229 51.7033 79.0624 49.9522 78.9998C48.2011 78.9373 46.5243 78.2765 45.2014 77.1275C43.8784 75.9786 42.9892 74.411 42.6819 72.6859C42.3747 70.9608 42.6679 69.1826 43.5128 67.6475C44.3577 66.1124 45.7032 64.9133 47.325 64.25V36.7937C46.3893 36.4103 45.5387 35.8455 44.8224 35.1318C44.106 34.4181 43.538 33.5697 43.151 32.6355C42.7641 31.7013 42.5659 30.6997 42.5678 29.6885C42.5698 28.6773 42.7719 27.6765 43.1625 26.7437L31.8312 15.4062L1.89374 45.3437C1.29562 45.9416 0.821154 46.6514 0.497441 47.4326C0.173727 48.2138 0.0071106 49.0512 0.0071106 49.8969C0.0071106 50.7425 0.173727 51.5799 0.497441 52.3611C0.821154 53.1424 1.29562 53.8522 1.89374 54.45L45.5562 98.1125C46.1541 98.7106 46.8639 99.1851 47.6451 99.5088C48.4263 99.8325 49.2637 99.9991 50.1094 99.9991C50.955 99.9991 51.7924 99.8325 52.5736 99.5088C53.3549 99.1851 54.0647 98.7106 54.6625 98.1125L98.1187 54.6562C99.3252 53.4481 100.003 51.8105 100.003 50.1031C100.003 48.3957 99.3252 46.7582 98.1187 45.55" fill="#888888"/>
</g>
<defs>
<clipPath id="clip0_29_131">
<rect width="100" height="100" fill="white"/>
</clipPath>
</defs>
</svg>
