<svg width="100" height="100" viewBox="0 0 100 100" fill="none" xmlns="http://www.w3.org/2000/svg">
<g clip-path="url(#clip0_29_114)">
<path d="M43.75 34.3751C41.1648 34.3756 38.6201 35.0175 36.344 36.2433C34.0679 37.4692 32.1315 39.2407 30.7084 41.3989C29.2853 43.5572 28.42 46.0349 28.1899 48.6099C27.9599 51.1848 28.3724 53.7767 29.3905 56.153C30.4085 58.5293 32.0002 60.616 34.023 62.2258C36.0459 63.8357 38.4365 64.9185 40.9807 65.3772C43.5249 65.8358 46.1432 65.6561 48.6008 64.854C51.0585 64.0519 53.2787 62.6525 55.0625 60.7813C55.4872 60.3356 55.9956 59.978 56.5586 59.7288C57.1215 59.4796 57.7281 59.3437 58.3436 59.3289C58.959 59.3141 59.5714 59.4207 60.1457 59.6425C60.72 59.8644 61.2449 60.1972 61.6906 60.6219C62.1363 61.0467 62.4939 61.555 62.7432 62.118C62.9924 62.681 63.1282 63.2875 63.143 63.903C63.1578 64.5185 63.0513 65.1308 62.8294 65.7051C62.6075 66.2794 62.2747 66.8044 61.85 67.2501C58.406 70.8634 53.9591 73.363 49.082 74.427C44.205 75.491 39.1211 75.0706 34.485 73.2199C29.849 71.3693 25.8731 68.1732 23.0694 64.0432C20.2656 59.9132 18.7625 55.0384 18.7535 50.0467C18.7444 45.0549 20.23 40.1748 23.0187 36.0346C25.8075 31.8945 29.7718 28.6841 34.4011 26.8167C39.0304 24.9493 44.1128 24.5105 48.9937 25.5568C53.8745 26.6032 58.3304 29.0867 61.7875 32.6876C62.6495 33.5843 63.1199 34.7868 63.0953 36.0304C63.0706 37.274 62.553 38.4569 61.6562 39.3188C60.7595 40.1808 59.557 40.6512 58.3134 40.6266C57.0698 40.6019 55.887 40.0843 55.025 39.1876C53.5694 37.6638 51.8194 36.4516 49.8813 35.6243C47.9432 34.7971 45.8573 34.3721 43.75 34.3751Z" fill="#888888"/>
<path d="M41.1625 0.638889C41.8795 0.220478 42.6948 0 43.525 0C44.3552 0 45.1705 0.220478 45.8875 0.638889L75.3563 17.8264C76.4304 18.453 77.2116 19.4806 77.5281 20.6831C77.8445 21.8857 77.6703 23.1648 77.0437 24.2389C76.4172 25.313 75.3896 26.0942 74.187 26.4107C72.9844 26.7272 71.7054 26.553 70.6312 25.9264L43.525 10.1139L9.375 30.0389V69.9639L43.525 89.8889L70.6312 74.0764C71.1635 73.7573 71.7537 73.547 72.3678 73.4578C72.982 73.3686 73.6077 73.4022 74.2087 73.5566C74.8097 73.7111 75.3741 73.9834 75.869 74.3577C76.364 74.732 76.7797 75.2008 77.0921 75.737C77.4045 76.2732 77.6073 76.8661 77.6887 77.4813C77.7702 78.0965 77.7287 78.7217 77.5666 79.3207C77.4046 79.9198 77.1252 80.4806 76.7447 80.9708C76.3642 81.461 75.8901 81.8708 75.35 82.1764L45.8875 99.3639C45.1705 99.7823 44.3552 100.003 43.525 100.003C42.6948 100.003 41.8795 99.7823 41.1625 99.3639L2.325 76.7076C1.61729 76.2947 1.0302 75.7034 0.622251 74.9928C0.214304 74.2822 -0.000242596 73.477 2.05855e-07 72.6576V27.3451C-0.000242596 26.5258 0.214304 25.7206 0.622251 25.01C1.0302 24.2994 1.61729 23.7081 2.325 23.2951L41.1625 0.638889Z" fill="#888888"/>
<path d="M76.125 32.8125C76.9538 32.8125 77.7487 33.1417 78.3347 33.7278C78.9208 34.3138 79.25 35.1087 79.25 35.9375V64.0625C79.25 64.8913 78.9208 65.6862 78.3347 66.2722C77.7487 66.8583 76.9538 67.1875 76.125 67.1875C75.2962 67.1875 74.5013 66.8583 73.9153 66.2722C73.3292 65.6862 73 64.8913 73 64.0625V35.9375C73 35.1087 73.3292 34.3138 73.9153 33.7278C74.5013 33.1417 75.2962 32.8125 76.125 32.8125ZM89.5 32.8125C90.3288 32.8125 91.1237 33.1417 91.7097 33.7278C92.2958 34.3138 92.625 35.1087 92.625 35.9375V64.0625C92.625 64.8913 92.2958 65.6862 91.7097 66.2722C91.1237 66.8583 90.3288 67.1875 89.5 67.1875C88.6712 67.1875 87.8763 66.8583 87.2903 66.2722C86.7042 65.6862 86.375 64.8913 86.375 64.0625V35.9375C86.375 35.1087 86.7042 34.3138 87.2903 33.7278C87.8763 33.1417 88.6712 32.8125 89.5 32.8125Z" fill="#888888"/>
<path d="M65.625 43.3125C65.625 42.4837 65.9542 41.6888 66.5403 41.1028C67.1263 40.5167 67.9212 40.1875 68.75 40.1875H96.875C97.7038 40.1875 98.4987 40.5167 99.0847 41.1028C99.6708 41.6888 100 42.4837 100 43.3125C100 44.1413 99.6708 44.9362 99.0847 45.5222C98.4987 46.1083 97.7038 46.4375 96.875 46.4375H68.75C67.9212 46.4375 67.1263 46.1083 66.5403 45.5222C65.9542 44.9362 65.625 44.1413 65.625 43.3125ZM65.625 56.6875C65.625 55.8587 65.9542 55.0638 66.5403 54.4778C67.1263 53.8917 67.9212 53.5625 68.75 53.5625H96.875C97.7038 53.5625 98.4987 53.8917 99.0847 54.4778C99.6708 55.0638 100 55.8587 100 56.6875C100 57.5163 99.6708 58.3112 99.0847 58.8972C98.4987 59.4833 97.7038 59.8125 96.875 59.8125H68.75C67.9212 59.8125 67.1263 59.4833 66.5403 58.8972C65.9542 58.3112 65.625 57.5163 65.625 56.6875Z" fill="#888888"/>
</g>
<defs>
<clipPath id="clip0_29_114">
<rect width="100" height="100" fill="white"/>
</clipPath>
</defs>
</svg>
