<svg width="100" height="100" viewBox="0 0 100 100" fill="none" xmlns="http://www.w3.org/2000/svg">
<path d="M85.675 42.45C86.7167 39.5834 86.9792 36.7167 86.7167 33.8542C86.4583 30.9875 85.4167 28.125 84.1125 25.5209C81.7708 21.6125 78.3833 18.4875 74.4792 16.6667C70.3125 14.8417 65.8833 14.3209 61.4583 15.3625C59.375 13.2792 57.0292 11.4584 54.425 10.1542C51.8208 8.85838 48.6958 8.33338 45.8333 8.33338C41.362 8.30727 36.9934 9.6732 33.3333 12.2417C29.6875 14.8417 27.0833 18.4917 25.7792 22.6584C22.6542 23.4375 20.05 24.7417 17.4458 26.3042C15.1042 28.125 13.2792 30.4709 11.7167 32.8125C9.375 36.7209 8.59167 41.1459 9.1125 45.575C9.63581 49.9913 11.4472 54.156 14.3208 57.55C13.3359 60.3015 12.98 63.2388 13.2792 66.1459C13.5417 69.0125 14.5833 71.875 15.8833 74.4792C18.2292 78.3875 21.6125 81.5125 25.5208 83.3334C29.6875 85.1584 34.1125 85.6792 38.5417 84.6375C40.625 86.7209 42.9667 88.5417 45.5708 89.8459C48.175 91.1459 51.3 91.6667 54.1667 91.6667C58.638 91.6928 63.0066 90.3269 66.6667 87.7584C70.3125 85.1542 72.9167 81.5084 74.2167 77.3417C77.1588 76.7823 79.9263 75.5328 82.2917 73.6959C84.6333 71.875 86.7167 69.7917 88.0208 67.1875C90.3625 63.2792 91.1458 58.8542 90.625 54.425C90.1042 50 88.5417 45.8334 85.675 42.45ZM54.425 86.2C50.2583 86.2 47.1333 84.8959 44.2708 82.5542C44.2708 82.5542 44.5292 82.2917 44.7917 82.2917L61.4583 72.6542C61.9235 72.4494 62.2952 72.0778 62.5 71.6125C62.7583 71.0917 62.7583 70.8334 62.7583 70.3125V46.875L69.7917 51.0417V70.3125C69.8633 72.3744 69.5187 74.4295 68.7785 76.3552C68.0382 78.2808 66.9175 80.0376 65.4832 81.5205C64.0489 83.0034 62.3305 84.1821 60.4305 84.9861C58.5306 85.7901 56.4881 86.203 54.425 86.2ZM20.8333 71.875C19.0083 68.75 18.2292 65.1042 19.0083 61.4584C19.0083 61.4584 19.2708 61.7209 19.5292 61.7209L36.1958 71.3542C36.5961 71.5657 37.0491 71.6569 37.5 71.6167C38.0208 71.6167 38.5417 71.6167 38.8 71.3542L59.1125 59.6334V67.7084L42.1875 77.6042C38.642 79.6578 34.4263 80.2198 30.4667 79.1667C26.3 78.125 22.9167 75.5209 20.8333 71.875ZM16.4042 35.675C18.2463 32.5654 21.0952 30.1781 24.4792 28.9084V48.7C24.4792 49.2167 24.4792 49.7417 24.7375 50C24.9423 50.4653 25.3139 50.8369 25.7792 51.0417L46.0917 62.7625L39.0625 66.9292L22.3958 57.2917C20.6205 56.2893 19.0618 54.9445 17.8101 53.3352C16.5585 51.7259 15.6387 49.8841 15.1042 47.9167C14.0625 44.0084 14.3208 39.3209 16.4042 35.675ZM73.9583 48.9584L53.6458 37.2375L60.675 33.0709L77.3417 42.7084C79.9458 44.2709 82.0292 46.3542 83.3333 48.9584C84.6333 51.5625 85.4167 54.4292 85.1542 57.5542C84.9004 60.4867 83.8164 63.2863 82.0292 65.625C80.2083 67.9709 77.8625 69.7917 75 70.8334V51.0417C75 50.5209 75 50 74.7375 49.7375C74.7375 49.7375 74.4792 49.2209 73.9583 48.9584ZM80.9875 38.5417C80.9875 38.5417 80.7292 38.2792 80.4667 38.2792L63.8 28.6459C63.2792 28.3834 63.0208 28.3834 62.5 28.3834C61.9792 28.3834 61.4583 28.3834 61.1958 28.6459L40.8833 40.3667V32.2917L57.8125 22.3959C60.4167 20.8334 63.2792 20.3125 66.4042 20.3125C69.2708 20.3125 72.1333 21.3542 74.7375 23.1792C77.0833 25 79.1667 27.3459 80.2083 29.95C81.25 32.5542 81.5083 35.6792 80.9875 38.5417ZM37.2375 53.125L30.2083 48.9584V29.425C30.2083 26.5625 30.9875 23.4375 32.55 21.0917C34.1125 18.4917 36.4583 16.6667 39.0625 15.3667C41.7165 14.0345 44.7249 13.5793 47.6542 14.0667C50.5208 14.3292 53.3833 15.6292 55.7292 17.4542C55.7292 17.4542 55.4667 17.7125 55.2083 17.7125L38.5417 27.35C38.0764 27.5549 37.7048 27.9265 37.5 28.3917C37.2375 28.9125 37.2375 29.1709 37.2375 29.6917V53.1292V53.125ZM40.8833 44.7917L50 39.5834L59.1125 44.7917V55.2084L50 60.4167L40.8833 55.2084V44.7917Z" fill="#888888"/>
</svg>
