<svg width="100" height="100" viewBox="0 0 100 100" fill="none" xmlns="http://www.w3.org/2000/svg">
<path fill-rule="evenodd" clip-rule="evenodd" d="M64.6898 26.7422C62.6555 20.4079 59.3922 14.8016 54.7937 9.97739C53.6312 8.75708 52.3391 7.63911 51.5281 6.12114C51.0156 5.16021 50.5273 4.18599 50.0281 3.2188L49.7109 2.42114L49.6227 2.73521C49.5812 4.31333 48.6875 5.38286 47.575 6.38208C46.3219 7.50552 45.1562 8.72583 43.9531 9.90474L40.2531 14.7711L37.2617 20.2727L35.2609 25.675L35.2008 25.7586C34.1 29.375 33.557 33.0938 33.2906 36.8485C33.1898 38.2602 33.3055 39.6915 33.3844 41.1102C33.4977 43.1383 33.85 45.1313 34.3781 47.0946C36.2977 54.2243 40.1937 60.1375 45.5211 65.1625C46.5102 66.0961 47.5797 66.9454 48.6117 67.8329L49.0687 69.4016L49.4938 71.836L49.6969 74.3774C49.6945 74.893 49.6734 75.411 49.7039 75.925C49.7125 76.0571 49.8844 76.179 49.9813 76.3055L50.8438 76.6086L51.7414 76.9579L51.5875 74.6993L51.5805 72.4743L51.8906 69.0852L52.1156 68.3477L52.7602 67.2063C53.5555 66.5672 54.4078 65.986 55.132 65.2743C56.4422 63.9876 57.75 62.6829 58.9226 61.2727C60.4483 59.4449 61.7514 57.4423 62.8047 55.3071C63.507 53.875 64.1695 52.4141 64.7172 50.918C65.2 49.5993 65.4992 48.2125 65.8797 46.8555L65.9797 46.5625C66.7648 42.9 66.8969 39.2001 66.6086 35.4766C66.3766 32.4758 65.6711 29.5797 64.6898 26.7422ZM49.143 66.0196C49.2633 65.4172 49.4125 64.818 49.5211 64.2133C49.4125 64.818 49.2641 65.4172 49.143 66.0196ZM83.1828 80.4407C82.5375 79.204 81.5906 78.2649 80.3391 77.6485C79.2906 77.1329 78.1633 76.9063 77.0039 76.8735C76.1352 76.8485 75.2633 76.893 74.393 76.904C73.6203 76.9133 72.8469 76.9266 72.0742 76.9196C71.1656 76.9102 70.257 76.8829 69.3484 76.8571C69.1977 76.8524 69.0906 76.8829 69.0203 77.036C68.9102 77.2743 68.7797 77.504 68.6445 77.7649L68.7961 77.8133C69.2469 77.893 69.7 77.961 70.1484 78.0508C70.725 78.1657 70.9844 78.4969 71.0109 78.9829C71.05 79.675 71.0656 80.3688 71.0633 81.0626C71.0516 83.8079 71.032 86.5532 71.0117 89.2977C71.0101 89.479 71.007 89.668 70.9578 89.8383C70.9008 90.0352 70.8391 90.2899 70.6922 90.3868C70.4279 90.5565 70.1313 90.6695 69.8211 90.7188C69.3828 90.7907 69.3094 90.8102 69.1727 91.2415L69.1133 91.4571C69.0477 91.6922 69.0828 91.7383 69.3281 91.7407C70.7359 91.7563 72.143 91.7868 73.55 91.7821C74.8336 91.7774 76.1172 91.8555 77.3961 91.6141C78.6047 91.3868 79.7328 90.9883 80.7625 90.3141C82.0984 89.4383 83.0594 88.268 83.5664 86.7407C83.9758 85.5071 84.0672 84.2485 83.9281 82.9586C83.8413 82.0797 83.5884 81.2252 83.1828 80.4407ZM80.7164 87.9883C79.9633 89.3899 78.8398 90.3258 77.2344 90.5727C76.2289 90.7266 75.2219 90.6821 74.2633 90.3016C73.6562 90.061 73.4305 89.5368 73.4117 88.9172C73.3945 88.3101 73.3859 87.7027 73.3859 87.0954C73.3828 84.9594 73.3828 82.8235 73.3859 80.6883C73.3875 80.0157 73.3992 79.3415 73.4101 78.668C73.418 78.1946 73.5172 78.036 73.9789 77.9977C76.007 77.8274 77.9422 78.0461 79.5492 79.4735C80.543 80.3563 81.1086 81.4821 81.3438 82.7751C81.4414 83.3141 81.4711 83.8657 81.532 84.4125C81.4828 85.661 81.3141 86.8758 80.7164 87.9883ZM97.7391 85.675C97.3391 84.7016 96.5812 84.0915 95.6289 83.7008C95.3039 83.5672 94.9688 83.4571 94.618 83.3274L94.7406 83.2493C95.1195 83.0063 95.5414 82.8102 95.868 82.511C96.6617 81.7836 96.9914 80.8688 96.8367 79.7821C96.6898 78.7485 96.1742 77.9899 95.2531 77.4977C94.4172 77.0524 93.5156 76.8899 92.5828 76.8907C90.9687 76.8922 89.3539 76.9165 87.7398 76.9196C87.1836 76.9204 86.6273 76.879 86.0711 76.8711C85.9633 76.8696 85.8031 76.8969 85.757 76.9688C85.6297 77.1641 85.5453 77.3891 85.4547 77.6063C85.4023 77.7329 85.4539 77.8024 85.5984 77.8211C85.9867 77.8743 86.3742 77.9407 86.7633 77.9985C87.3008 78.079 87.5609 78.3586 87.5938 78.9L87.6008 79.2211C87.6016 80.9047 87.607 82.5883 87.6 84.2719C87.59 85.9532 87.5741 87.6345 87.5523 89.3157C87.55 89.5274 87.5211 89.7399 87.4906 89.9501C87.4445 90.2672 87.275 90.486 86.95 90.5547L86.0305 90.736C85.9219 90.7579 85.7648 90.7547 85.7203 90.8219C85.5516 91.0743 85.4156 91.35 85.4344 91.6829L85.5289 91.7086L88.6172 91.7844L89.2367 91.7821C90.3055 91.7696 91.3758 91.7907 92.443 91.736C93.5984 91.6782 94.6836 91.3352 95.6867 90.7454C96.7547 90.1165 97.5766 89.2876 97.8688 88.0407C98.0563 87.2446 98.057 86.4438 97.7391 85.675ZM89.893 78.5024C89.8977 78.1641 90.0469 78.0172 90.3828 78.0086C91.2102 77.986 92.032 77.9907 92.8305 78.2758C93.8633 78.6446 94.4984 79.5352 94.4867 80.6235C94.4812 81.0415 94.4875 81.4555 94.3336 81.8571C94.0297 82.6477 93.4469 83.0649 92.6203 83.1461C92.1891 83.1899 91.7539 83.1946 91.3695 83.2149L90.0867 83.1586C89.9164 83.1524 89.8422 83.0774 89.843 82.9024L89.893 78.5024ZM95.2102 89.0446C94.7969 89.9438 94.0437 90.4165 93.1008 90.5805C92.3492 90.7094 91.5788 90.6756 90.8414 90.4813C90.2898 90.3399 90.0648 89.8969 89.9547 89.4055C89.8805 89.0766 89.893 88.6852 89.8867 88.343C89.8766 87.8149 89.8844 86.7188 89.8844 86.7188H89.8734C89.8734 85.9375 89.8758 85.261 89.8711 84.5118C89.8703 84.3501 89.8977 84.2696 90.0953 84.2758C90.7969 84.2969 91.5008 84.3086 92.2023 84.336C92.8297 84.3602 93.4172 84.5461 93.9695 84.8438C94.8102 85.2969 95.3164 85.9907 95.4555 86.9438C95.5617 87.6665 95.5164 88.3774 95.2102 89.0446ZM18.1891 89.8868L18.2039 85.6391C18.2062 85 18.125 84.3735 17.9156 83.7672C17.3383 82.0977 15.7461 81.3375 14.0883 81.9368C13.3344 82.2094 12.6586 82.6227 12.0133 83.0915C11.6375 83.3649 11.6375 83.3649 11.3656 82.9751C10.5961 81.8719 9.49687 81.4946 8.21719 81.9016C7.38984 82.1641 6.6664 82.6133 5.98125 83.1352C5.91719 83.1836 5.78828 83.2375 5.75 83.2086C5.68594 83.161 5.6414 83.0477 5.64297 82.9625L5.68984 82.2079C5.69375 82.0493 5.66328 81.8899 5.64765 81.7235C5.33828 81.8305 5.0914 81.9375 4.83281 82C4.03359 82.1954 3.2289 82.3751 2.425 82.5586C2.23047 82.6032 2.025 82.6618 2.00625 82.8852C1.98672 83.1047 2.19844 83.1415 2.3625 83.2071C2.70781 83.3461 3.05078 83.4938 3.39219 83.6438C3.6789 83.7704 3.78594 83.9993 3.78437 84.3071C3.7789 85.6235 3.7875 86.9383 3.77969 88.2547C3.77656 88.7899 3.75156 89.3243 3.72734 89.8594C3.70547 90.3336 3.54375 90.5321 3.08437 90.6516C2.84062 90.7157 2.59297 90.7586 2.34765 90.8165C2.29375 90.829 2.20156 90.8633 2.20078 90.8899C2.19062 91.1219 2.17812 91.3594 2.21719 91.5852C2.225 91.6258 2.47031 91.6258 2.60625 91.6415L2.69765 91.636C3.64453 91.6219 4.5914 91.6071 5.53906 91.5969C6.0414 91.5915 6.54297 91.5961 7.08828 91.5961L7.14687 90.8383C6.83437 90.7813 6.55547 90.7383 6.28047 90.6782C5.85156 90.5844 5.66875 90.3571 5.65781 89.9243L5.65 89.3047C5.64531 87.6977 5.63906 86.0915 5.63906 84.4844C5.63906 84.2508 5.73594 84.0657 5.9414 83.9258C6.37656 83.6321 6.83594 83.3985 7.34453 83.268C8.4164 82.9938 9.34609 83.3751 9.75859 84.2868C9.88906 84.5743 9.99141 84.8922 10.0203 85.2047C10.1719 86.8157 10.1062 88.4282 10.0148 90.0391C9.99531 90.3868 9.83203 90.5618 9.48906 90.6469L8.68281 90.8172C8.61797 90.8336 8.52344 90.7899 8.51875 90.8438C8.50078 91.0665 8.51094 91.4079 8.51094 91.4079H8.70312L11.1578 91.4883C11.8305 91.4868 12.5039 91.568 13.1758 91.5852C13.2961 91.5875 13.4031 91.6055 13.4102 91.4665C13.4178 91.2506 13.415 91.0344 13.4016 90.8188L13.2734 90.7961L12.582 90.6407C12.1156 90.5305 11.9547 90.3532 11.9531 89.8813C11.9477 88.718 11.9633 87.5555 11.9531 86.393C11.9471 85.7281 11.9224 85.0635 11.8789 84.4C11.8672 84.2235 11.8945 84.1079 12.0352 84.0086C12.4427 83.7107 12.9013 83.4896 13.3883 83.3563C14.9 82.9579 16.1375 83.7868 16.2156 85.3454C16.2922 86.8485 16.2602 88.3571 16.2484 89.8633C16.2445 90.3876 16.0711 90.5461 15.5547 90.6868L15.3766 90.7329C14.8477 90.8594 14.8523 90.8594 14.8836 91.4211C14.8937 91.5969 14.9422 91.6422 15.1297 91.6376C16.207 91.6133 17.2844 91.6071 18.3617 91.5977C18.8023 91.5938 19.243 91.5977 19.7227 91.5977L19.8203 90.8665C19.3992 90.7547 19.0109 90.6719 18.6359 90.5493C18.3047 90.4368 18.1875 90.2368 18.1891 89.8868ZM55.2898 83.4485C55.7336 83.0368 55.7367 82.493 55.6125 81.8891C55.2609 82.2571 54.8672 82.4266 54.418 82.4586C53.8156 82.5016 53.2242 82.4493 52.6633 82.2094C51.1461 81.5579 49.6523 81.604 48.1633 82.3188C46.9109 82.9188 46.1406 83.854 46.0633 85.2719C46.0141 86.1805 46.1844 87.0407 46.7906 87.7633C47.1539 88.1961 47.6203 88.4766 48.1461 88.6704C48.3727 88.754 48.3898 88.8618 48.2 89.0063C48.0598 89.1122 47.9146 89.2113 47.7648 89.3032C47.4475 89.5027 47.1282 89.699 46.807 89.8922C46.6187 90.0063 46.5547 90.1516 46.6164 90.3743C46.7969 91.029 47.2617 91.4071 47.843 91.6829L48.0547 91.8305L47.8695 92.0157C47.3 92.4774 46.7078 92.9133 46.1625 93.4032C45.7047 93.8149 45.557 94.3665 45.6953 94.9751C45.9742 96.1899 46.7797 96.9415 47.9227 97.2868C49.9203 97.8915 51.7961 97.5446 53.5062 96.361C54.5203 95.6586 55.2477 94.7446 55.4687 93.4868C55.7164 92.0735 54.9312 90.8469 53.5258 90.5938C52.5961 90.425 51.6445 90.3766 50.7039 90.2688C50.2648 90.2188 49.8195 90.1891 49.3922 90.0883C49.0289 90.0024 48.8484 89.7063 48.882 89.4172C48.9156 89.1329 49.218 88.868 49.5641 88.8407C50.2609 88.7844 50.9437 88.6758 51.5859 88.3821C53.2875 87.604 54.0773 86.2415 53.8797 84.4071C53.8539 84.1602 53.7976 83.9165 53.7469 83.629C54.2914 83.7204 54.8484 83.8586 55.2898 83.4485ZM50.1266 92.0555C50.8188 92.0758 51.6062 92.1188 52.3672 92.3415C53.0367 92.5368 53.5875 92.879 53.75 93.6266C53.9461 94.5297 53.5117 95.4282 52.6375 95.911C51.8187 96.3625 50.9297 96.4001 50.0281 96.3071C49.2563 96.2274 48.5617 95.9602 48.0055 95.3899C47.2727 94.6391 47.2687 93.6001 48.0023 92.8516C48.6578 92.1829 49.0086 92.0446 50.1266 92.0555ZM51.8586 86.6165C51.4555 87.9063 50.282 88.0844 49.3625 87.6719C48.5789 87.3211 48.2375 86.6305 48.0586 85.8422C47.9891 85.5391 47.9727 85.2243 47.932 84.9141C47.9484 84.4696 48.0219 84.043 48.2133 83.643C48.8 82.411 50.2414 82.4844 51.0391 83.0422C51.3813 83.2813 51.6195 83.6063 51.7687 83.9915C52.1009 84.8298 52.1327 85.7573 51.8586 86.6165ZM44.5383 90.7282C44.2592 90.6855 43.9833 90.6239 43.7125 90.5438C43.2375 90.3985 43.1797 90.3094 43.1742 89.8071C43.1602 88.4071 43.1508 87.0071 43.1352 85.6079C43.1273 84.9782 43.0523 84.3571 42.8594 83.7555C42.3516 82.1696 40.7961 81.318 39.2398 81.786C38.3773 82.0461 37.6367 82.5297 36.9469 83.0977L36.6953 83.2907L36.6961 83.0321C36.7125 82.7344 36.7445 82.4368 36.7422 82.1391C36.7406 81.9836 36.6813 81.8274 36.6523 81.6907C36.0641 81.868 35.5367 82.0461 34.9984 82.1821C34.4586 82.318 33.9078 82.4102 33.3617 82.5211C33.0906 82.5758 32.8914 82.7399 32.8961 82.9266C32.9031 83.1899 33.1211 83.2407 33.3117 83.3196C33.657 83.461 34.0016 83.604 34.343 83.7555C34.5867 83.8641 34.6859 84.0657 34.6836 84.3274C34.6664 86.1469 34.6555 87.9672 34.6289 89.7876C34.6211 90.3625 34.4758 90.5141 33.9102 90.6407L33.6633 90.6899C33.1398 90.7797 33.125 90.8008 33.1609 91.3532L33.1641 91.4446C33.1578 91.6571 33.2508 91.7258 33.4695 91.7235C34.8602 91.7071 36.2516 91.6993 37.6422 91.7047C38.2383 91.7071 38.3023 91.6602 38.2898 91.0477L38.2617 90.7844C37.9211 90.7274 37.5953 90.686 37.2766 90.6157C36.943 90.5415 36.8234 90.4047 36.7922 90.0657C36.7633 89.7555 36.7539 89.4407 36.7508 89.1282C36.7352 87.6977 36.7227 86.2672 36.7156 84.8376C36.7141 84.4774 36.7805 84.143 37.1117 83.911C37.5993 83.5626 38.174 83.3565 38.7719 83.3157C40.0125 83.2305 40.9555 83.9657 41.0227 85.2024C41.1055 86.7282 41.0805 88.2594 41.1 89.7883C41.1016 89.9024 41.0812 90.0172 41.0656 90.1305C41.0359 90.354 40.9266 90.5219 40.7 90.5797C40.4789 90.6376 40.2547 90.6891 40.0289 90.7235C39.6922 90.7735 39.6852 90.7711 39.6594 91.111L39.668 91.3399C39.7078 91.7352 39.7086 91.7235 40.1086 91.7196C41.4539 91.7086 42.7984 91.7016 44.143 91.7032C44.7055 91.7047 44.7453 91.6782 44.75 91.0985L44.7484 90.961C44.757 90.8126 44.6906 90.7524 44.5383 90.7282ZM63.3289 81.8821C61.9187 81.5376 60.5812 81.7938 59.3109 82.4508C58.0766 83.0891 57.2516 84.0758 56.9375 85.4383C56.6203 86.8157 56.7719 88.1594 57.3805 89.4383C57.7766 90.2688 58.3859 90.911 59.2156 91.3282C61.1578 92.3063 63.5336 91.8625 65.057 90.554C66.2594 89.5219 66.7008 88.1477 66.7273 86.4469C66.7109 86.2766 66.6945 85.9485 66.6492 85.6235C66.3937 83.7719 65.1117 82.318 63.3289 81.8821ZM64.3969 89.0344C64.0227 90.5079 62.7484 91.1626 61.3109 90.6563C60.5773 90.3985 60.0289 89.9055 59.6602 89.2391C58.8117 87.7079 58.6484 86.0797 59.1312 84.4094C59.4531 83.2969 60.3687 82.6883 61.4578 82.7649C62.4312 82.8329 63.1797 83.3 63.7289 84.0922C64.3078 84.9282 64.5312 85.879 64.5906 86.8774C64.6008 87.0376 64.5922 87.1977 64.5922 87.3586L64.6609 87.3665C64.575 87.9235 64.5344 88.4915 64.3969 89.0344ZM27.8625 81.8579C26.3789 81.5188 24.9891 81.854 23.7016 82.6079C22.5883 83.2594 21.8687 84.2329 21.593 85.5047C21.3344 86.693 21.4398 87.861 21.8609 88.9993C22.1172 89.693 22.5055 90.3032 23.075 90.779C24.2742 91.7797 25.6758 92.0329 27.1672 91.754C28.4297 91.5172 29.5391 90.9563 30.3453 89.9071C31.1 88.9258 31.3875 87.7993 31.4172 86.5782C31.3727 86.1915 31.3617 85.7977 31.2797 85.4204C30.8719 83.5368 29.7703 82.293 27.8625 81.8579ZM29.0727 89.0297C28.7109 90.4954 27.4164 91.1665 25.9891 90.6602C25.0727 90.3344 24.4758 89.6633 24.0984 88.8032C23.4937 87.4211 23.3703 85.9829 23.7617 84.525C24.0617 83.4102 24.9656 82.5891 26.3492 82.786C27.1984 82.9063 27.8609 83.3399 28.3547 84.0297C29.0219 84.9602 29.2414 86.0258 29.2719 87.1454V87.3743L29.3281 87.3829C29.2461 87.9329 29.2055 88.4922 29.0727 89.0297Z" fill="#888888"/>
</svg>
