<svg width="100" height="100" viewBox="0 0 100 100" fill="none" xmlns="http://www.w3.org/2000/svg">
<g clip-path="url(#clip0_29_133)">
<path d="M18.3708 27.5333L33.2542 1.0625L48.1375 27.5333H18.3708ZM35.0458 0L49.9167 26.45L64.8 0H35.0458ZM51.8625 72.4667L66.7458 98.9417L81.6417 72.4667H51.8625ZM49.3292 29.6167H18.3708L33.85 57.1375L49.3292 29.6167ZM51.1125 28.575H82.0625L66.5917 1.0625L51.1125 28.575ZM64.9542 100L50.0834 73.5458L35.2 100H64.9542ZM48.8875 71.425H17.9417L33.4083 98.9375L48.8875 71.425ZM50.6708 70.3833H81.6417L66.15 42.8625L50.6708 70.3833Z" fill="#888888"/>
</g>
<defs>
<clipPath id="clip0_29_133">
<rect width="100" height="100" fill="white"/>
</clipPath>
</defs>
</svg>
