<svg width="100" height="100" viewBox="0 0 100 100" fill="none" xmlns="http://www.w3.org/2000/svg">
<g clip-path="url(#clip0_29_119)">
<path d="M100 77.45C98.5446 78.0005 96.938 77.9993 95.4834 77.4466C94.0289 76.8939 92.8268 75.828 92.1042 74.45L77.7292 54.5708L75.6458 51.7917L58.9667 74.475C58.2874 75.7952 57.1506 76.8229 55.7688 77.3658C54.3869 77.9087 52.8546 77.9298 51.4583 77.425L72.95 48.5917L52.9583 22.5458C54.3958 22.0278 55.9679 22.021 57.4098 22.5264C58.8518 23.0318 60.0755 24.0187 60.875 25.3208L75.775 45.4458L90.7583 25.4042C91.4428 24.1075 92.5799 23.1075 93.9535 22.5943C95.327 22.0811 96.8413 22.0906 98.2083 22.6208L90.45 32.9167L79.9417 46.5958C79.6498 46.8562 79.4163 47.1752 79.2564 47.5321C79.0965 47.889 79.0139 48.2756 79.0139 48.6667C79.0139 49.0577 79.0965 49.4444 79.2564 49.8013C79.4163 50.1581 79.6498 50.4772 79.9417 50.7375L99.9583 77.4542L100 77.45ZM0.00833373 48.2333L1.75833 39.5875C6.56667 22.4917 26.1667 15.3792 39.65 25.9625C47.5458 32.1667 49.5167 40.95 49.1292 50.85H4.65C3.92917 68.5292 16.6875 79.2042 33 73.75C35.6444 72.7981 38.0114 71.2052 39.889 69.1138C41.7665 67.0225 43.096 64.498 43.7583 61.7667C44.6208 58.9917 46.0417 58.5167 48.65 59.3167C48.2153 62.7016 47.0188 65.9439 45.1503 68.7997C43.2818 71.6554 40.7901 74.0503 37.8625 75.8042C33.0267 78.4493 27.4784 79.4977 22.0109 78.7995C16.5434 78.1013 11.4367 75.6922 7.42083 71.9167C3.45012 67.4475 1.05032 61.8021 0.5875 55.8417C0.5875 54.8625 0.254167 53.9458 0.0291671 53.0667C0.00888385 51.457 -0.000838579 49.8473 3.93429e-07 48.2375L0.00833373 48.2333ZM4.70417 47.0417H44.9292C44.6792 34.225 36.5917 25.1333 25.8042 25.05C13.7958 24.8833 5.20417 33.775 4.675 46.9833L4.70417 47.0417Z" fill="#888888"/>
</g>
<defs>
<clipPath id="clip0_29_119">
<rect width="100" height="100" fill="white"/>
</clipPath>
</defs>
</svg>
