<svg width="100" height="100" viewBox="0 0 100 100" fill="none" xmlns="http://www.w3.org/2000/svg">
<g clip-path="url(#clip0_29_106)">
<path d="M83.3333 53.3334V52.22C83.3333 47.3134 79.3533 43.3334 74.4466 43.3334H66.6666C64.0145 43.3334 61.4709 44.3869 59.5956 46.2623C57.7202 48.1377 56.6666 50.6812 56.6666 53.3334C56.6666 55.9855 57.7202 58.5291 59.5956 60.4044C61.4709 62.2798 64.0145 63.3334 66.6666 63.3334H73.3333C75.9855 63.3334 78.529 64.3869 80.4044 66.2623C82.2797 68.1377 83.3333 70.6812 83.3333 73.3334C83.3333 75.9855 82.2797 78.5291 80.4044 80.4044C78.529 82.2798 75.9855 83.3334 73.3333 83.3334H66.6666C64.0145 83.3334 61.4709 82.2798 59.5956 80.4044C57.7202 78.5291 56.6666 75.9855 56.6666 73.3334M43.3333 40V73.3334C43.3333 75.9855 42.2797 78.5291 40.4044 80.4044C38.529 82.2798 35.9855 83.3334 33.3333 83.3334C30.6811 83.3334 28.1376 82.2798 26.2622 80.4044C24.3869 78.5291 23.3333 75.9855 23.3333 73.3334M3.33331 3.33337H96.6666V96.6667H3.33331V3.33337Z" stroke="#888888" stroke-width="6.66667"/>
</g>
<defs>
<clipPath id="clip0_29_106">
<rect width="100" height="100" fill="white"/>
</clipPath>
</defs>
</svg>
