<svg width="100" height="100" viewBox="0 0 100 100" fill="none" xmlns="http://www.w3.org/2000/svg">
<path d="M50 20C37.5533 20 29.78 26.6667 26.6667 40C31.3333 33.3333 36.78 30.8333 43 32.5C46.5533 33.4533 49.0867 36.2133 51.8933 39.2667C56.4733 44.24 61.7667 50 73.3333 50C85.78 50 93.5533 43.3333 96.6667 30C92 36.6667 86.5533 39.1667 80.3333 37.5C76.78 36.5467 74.2467 33.7867 71.44 30.7333C66.86 25.76 61.5667 20 50 20ZM26.6667 50C14.22 50 6.44666 56.6667 3.33333 70C7.99999 63.3333 13.4467 60.8333 19.6667 62.5C23.22 63.4533 25.7533 66.2133 28.56 69.2667C33.14 74.24 38.4333 80 50 80C62.4467 80 70.22 73.3333 73.3333 60C68.6667 66.6667 63.22 69.1667 57 67.5C53.4467 66.5467 50.9133 63.7867 48.1067 60.7333C43.5267 55.76 38.2333 50 26.6667 50Z" stroke="#888888" stroke-width="6.66667" stroke-linejoin="round"/>
</svg>
