<svg width="100" height="100" viewBox="0 0 100 100" fill="none" xmlns="http://www.w3.org/2000/svg">
<g clip-path="url(#clip0_29_121)">
<path d="M40 16.6667H46.6667M30 26.6667V10C30 8.23193 30.7024 6.53624 31.9526 5.286C33.2029 4.03575 34.8986 3.33337 36.6667 3.33337H63.3333C65.1014 3.33337 66.7971 4.03575 68.0474 5.286C69.2976 6.53624 70 8.23193 70 10V43.3334C70 45.1015 69.2976 46.7972 68.0474 48.0474C66.7971 49.2977 65.1014 50 63.3333 50H36.6667C34.8986 50 33.2029 50.7024 31.9526 51.9527C30.7024 53.2029 30 54.8986 30 56.6667V90C30 91.7681 30.7024 93.4638 31.9526 94.7141C33.2029 95.9643 34.8986 96.6667 36.6667 96.6667H63.3333C65.1014 96.6667 66.7971 95.9643 68.0474 94.7141C69.2976 93.4638 70 91.7681 70 90V73.3334M53.3333 30H10C8.23189 30 6.5362 30.7024 5.28596 31.9527C4.03571 33.2029 3.33333 34.8986 3.33333 36.6667V70C3.33333 71.7681 4.03571 73.4638 5.28596 74.7141C6.5362 75.9643 8.23189 76.6667 10 76.6667H30M46.6667 70H90C91.7681 70 93.4638 69.2977 94.714 68.0474C95.9643 66.7972 96.6667 65.1015 96.6667 63.3334V30C96.6667 28.2319 95.9643 26.5362 94.714 25.286C93.4638 24.0358 91.7681 23.3334 90 23.3334H70M53.3333 83.3334H60" stroke="#888888" stroke-width="6.66667"/>
</g>
<defs>
<clipPath id="clip0_29_121">
<rect width="100" height="100" fill="white"/>
</clipPath>
</defs>
</svg>
