<svg width="100" height="100" viewBox="0 0 100 100" fill="none" xmlns="http://www.w3.org/2000/svg">
<g clip-path="url(#clip0_29_112)">
<path d="M50 99.8167C48.575 99.8167 47.25 99.4459 46.0125 98.8042L33.3917 91.5625C31.4958 90.5542 32.4458 90.1875 33.0167 90.0042C35.575 89.1792 36.05 88.9959 38.7083 87.525C38.9917 87.3417 39.375 87.4334 39.6583 87.6167L49.3375 93.2125C49.7125 93.3959 50.1917 93.3959 50.475 93.2125L88.3375 72.0292C88.7125 71.8459 88.9042 71.4792 88.9042 71.0209V28.7459C88.9042 28.2875 88.7167 27.9209 88.3375 27.7375L50.475 6.65002C50.0958 6.46669 49.6208 6.46669 49.3375 6.65002L11.475 27.7375C11.0958 27.9209 10.9042 28.3792 10.9042 28.7459V71.0209C10.9042 71.3875 11.0958 71.8459 11.475 72.0292L21.8167 77.8084C27.4167 80.5584 30.925 77.35 30.925 74.1417V32.4167C30.925 31.8667 31.4 31.3167 32.0667 31.3167H36.9042C37.475 31.3167 38.0417 31.775 38.0417 32.4167V74.1375C38.0417 81.3834 33.9625 85.6 26.8458 85.6C24.6625 85.6 22.9542 85.6 18.1167 83.3084L8.15417 77.8084C6.95369 77.1482 5.95119 76.1796 5.2502 75.0025C4.54922 73.8254 4.17516 72.4825 4.16667 71.1125V28.8375C4.16667 26.0875 5.68334 23.5209 8.15417 22.1459L46.0167 0.958358C47.2493 0.326217 48.6147 -0.003479 50 -0.003479C51.3853 -0.003479 52.7507 0.326217 53.9833 0.958358L91.85 22.1417C94.3167 23.5167 95.8333 26.0834 95.8333 28.8334V71.1084C95.8333 73.8584 94.3167 76.425 91.85 77.8042L53.9833 98.9834C52.7261 99.5284 51.3703 99.8092 50 99.8084V99.8167ZM61.6708 70.7459C45.0667 70.7459 41.65 63.4125 41.65 57.175C41.65 56.625 42.125 56.075 42.7875 56.075H47.7208C48.2917 56.075 48.7625 56.4417 48.7625 56.9917C49.525 61.85 51.7083 64.2334 61.7667 64.2334C69.7375 64.2334 73.1542 62.4917 73.1542 58.3667C73.1542 55.9834 72.2042 54.2417 59.775 53.05C49.4292 52.0375 42.9792 49.8417 42.9792 41.8625C42.9792 34.4334 49.4292 30.0292 60.25 30.0292C72.3958 30.0292 78.375 34.0667 79.1333 42.8709C79.1249 43.1689 79.0245 43.4571 78.8458 43.6959C78.6583 43.8792 78.375 44.0625 78.0875 44.0625H73.1542C72.9145 44.0567 72.6833 43.9731 72.4953 43.8243C72.3074 43.6754 72.173 43.4695 72.1125 43.2375C70.9708 38.1959 68.0292 36.5417 60.25 36.5417C51.5167 36.5417 50.475 39.475 50.475 41.675C50.475 44.3375 51.7083 45.1625 63.475 46.6292C75.1458 48.0959 80.65 50.2042 80.65 58.0875C80.5542 66.1625 73.725 70.7459 61.6708 70.7459Z" fill="#888888"/>
</g>
<defs>
<clipPath id="clip0_29_112">
<rect width="100" height="100" fill="white"/>
</clipPath>
</defs>
</svg>
