<svg width="100" height="100" viewBox="0 0 100 100" fill="none" xmlns="http://www.w3.org/2000/svg">
<g clip-path="url(#clip0_29_125)">
<path d="M0 10.9375C0 4.9 4.9 0 10.9375 0H89.0625C95.1 0 100 4.9 100 10.9375V23.4375C100 24.6807 99.5061 25.873 98.6271 26.7521C97.748 27.6311 96.5557 28.125 95.3125 28.125C94.0693 28.125 92.877 27.6311 91.9979 26.7521C91.1189 25.873 90.625 24.6807 90.625 23.4375V10.9375C90.625 10.5231 90.4604 10.1257 90.1674 9.83265C89.8743 9.53962 89.4769 9.375 89.0625 9.375H10.9375C10.5231 9.375 10.1257 9.53962 9.83265 9.83265C9.53962 10.1257 9.375 10.5231 9.375 10.9375V89.0625C9.375 89.925 10.075 90.625 10.9375 90.625H95.3125C96.5557 90.625 97.748 91.1189 98.6271 91.9979C99.5061 92.877 100 94.0693 100 95.3125C100 96.5557 99.5061 97.748 98.6271 98.6271C97.748 99.5061 96.5557 100 95.3125 100H10.9375C8.03669 100 5.2547 98.8477 3.20352 96.7965C1.15234 94.7453 0 91.9633 0 89.0625L0 10.9375ZM29.6875 40.625C29.6875 39.3818 30.1814 38.1895 31.0604 37.3104C31.9395 36.4314 33.1318 35.9375 34.375 35.9375H57.8125C59.0557 35.9375 60.248 36.4314 61.1271 37.3104C62.0061 38.1895 62.5 39.3818 62.5 40.625C62.5 41.8682 62.0061 43.0605 61.1271 43.9396C60.248 44.8186 59.0557 45.3125 57.8125 45.3125H51.5625V78.125C51.5625 79.3682 51.0686 80.5605 50.1896 81.4396C49.3105 82.3186 48.1182 82.8125 46.875 82.8125C45.6318 82.8125 44.4395 82.3186 43.5604 81.4396C42.6814 80.5605 42.1875 79.3682 42.1875 78.125V45.3125H34.375C33.1318 45.3125 31.9395 44.8186 31.0604 43.9396C30.1814 43.0605 29.6875 41.8682 29.6875 40.625ZM70.475 41.125C73.0875 38.0125 77.1937 35.9375 82.8125 35.9375C88.0312 35.9375 91.9688 37.725 94.625 40.5312C95.4481 41.44 95.8824 42.635 95.8348 43.8602C95.7872 45.0853 95.2615 46.2431 94.3703 47.0852C93.4792 47.9273 92.2936 48.3867 91.0677 48.3649C89.8418 48.3432 88.6732 47.842 87.8125 46.9688C87.125 46.2437 85.75 45.3125 82.8125 45.3125C79.6875 45.3125 78.3125 46.3625 77.65 47.1562C76.9881 47.9608 76.6064 48.9591 76.5625 50C76.5625 50.65 76.8312 51.875 77.65 52.8438C78.3187 53.6375 79.6813 54.6875 82.8125 54.6875C83.2875 54.6875 83.7438 54.7562 84.175 54.8875C88.3188 55.475 91.45 57.325 93.5875 59.875C96.05 62.8125 96.875 66.275 96.875 68.75C96.875 71.225 96.05 74.6875 93.5875 77.625C90.975 80.7375 86.8688 82.8125 81.25 82.8125C76.0312 82.8125 72.0938 81.025 69.4375 78.2188C68.6144 77.31 68.1801 76.115 68.2277 74.8898C68.2753 73.6647 68.801 72.5069 69.6922 71.6648C70.5833 70.8227 71.7689 70.3633 72.9948 70.3851C74.2207 70.4068 75.3893 70.908 76.25 71.7812C76.9375 72.5062 78.3125 73.4375 81.25 73.4375C84.375 73.4375 85.75 72.3875 86.4125 71.5938C87.0744 70.7892 87.4561 69.7909 87.5 68.75C87.5 68.1 87.2313 66.875 86.4125 65.9062C85.7438 65.1125 84.3812 64.0625 81.25 64.0625C80.7885 64.0635 80.3293 63.9961 79.8875 63.8625C75.7437 63.2688 72.6125 61.425 70.475 58.875C68.3925 56.382 67.2317 53.2481 67.1875 50C67.1875 47.525 68.0125 44.0625 70.475 41.125Z" fill="#888888"/>
</g>
<defs>
<clipPath id="clip0_29_125">
<rect width="100" height="100" fill="white"/>
</clipPath>
</defs>
</svg>
