<svg width="100" height="100" viewBox="0 0 100 100" fill="none" xmlns="http://www.w3.org/2000/svg">
<g clip-path="url(#clip0_29_103)">
<path d="M31.2583 0H42V4.49167H35.75V8.98333H42V13.475H31.2583V0ZM44.1458 0H54.8917V3.90833H48.6417V4.6875H54.8917V13.6708H44.1458V9.57083H50.3958V8.7875H44.1458V0ZM57.0417 0H67.7792V3.90833H61.5292V4.6875H67.7792V13.6708H57.0417V9.57083H63.2917V8.7875H57.0417V0Z" fill="#888888"/>
<path fill-rule="evenodd" clip-rule="evenodd" d="M49.9625 100L21.0292 91.9667L12.5 19.6542H87.5L78.975 91.9584L49.9625 100ZM29.3625 52.3875L30.1583 61.2542H60.8958L59.8667 72.7542L49.975 75.4292H49.9667L40.0917 72.7625L39.4583 65.6917H30.5542L31.7958 79.6167L49.9625 84.6583L68.1583 79.6167L70.375 54.7667L70.5917 52.3875L72.1917 34.4333H27.7667L28.575 43.3042H62.475L61.6667 52.3875H29.3625Z" fill="#888888"/>
</g>
<defs>
<clipPath id="clip0_29_103">
<rect width="100" height="100" fill="white"/>
</clipPath>
</defs>
</svg>
