<svg width="139" height="132" viewBox="0 0 139 132" fill="none" xmlns="http://www.w3.org/2000/svg">
<path d="M10.3112 33.5922L69.5 1.14044L128.689 33.5922V98.4078L69.5 130.86L10.3112 98.4078V33.5922Z" fill="#D9D9D9" stroke="#FFDF38" stroke-width="2"/>
<path d="M99 59.3333C88.1649 59.9617 77.7443 63.7178 69 70.1466C60.2556 63.7178 49.8351 59.9617 39 59.3333V69.2C37.2289 69.2035 35.5317 69.9102 34.2816 71.1648C33.0314 72.4193 32.3307 74.1189 32.3333 75.89V79.2366C32.3333 82.9333 39 86.5966 39 86.5966V93.2866C47.8533 93.8561 56.3915 96.7915 63.7233 101.787C65.5746 103.071 67.3375 104.479 69 106C70.6625 104.479 72.4254 103.071 74.2767 101.787C81.6084 96.7915 90.1466 93.8561 99 93.2866V85.9266C100.771 85.9231 102.468 85.2164 103.718 83.9619C104.969 82.7074 105.669 81.0077 105.667 79.2366V75.89C105.669 74.1189 104.969 72.4193 103.718 71.1648C102.468 69.9102 100.771 69.2035 99 69.2V59.3333ZM69 97.4066C62.0866 92.3401 54.1048 88.9239 45.6667 87.42V66.92C52.1336 68.2228 58.2736 70.8093 63.7233 74.5266C65.5746 75.8113 67.3375 77.2189 69 78.74C70.6625 77.2189 72.4254 75.8113 74.2767 74.5266C79.7262 70.8081 85.8661 68.2204 92.3333 66.9166V87.42C83.8951 88.9239 75.9134 92.3401 69 97.4066ZM65.6667 52.6666H72.3333V56H65.6667V52.6666ZM65.6667 39.3333H72.3333V42.6666H65.6667V39.3333Z" fill="#02051F"/>
<path d="M65.6667 59.3333H72.3333V62.6667H65.6667V59.3333ZM59 42.6667C59.884 42.6667 60.7319 42.3155 61.357 41.6904C61.9821 41.0652 62.3333 40.2174 62.3333 39.3333C62.3364 38.8991 62.2532 38.4686 62.0885 38.0668C61.9237 37.6651 61.6808 37.3 61.3737 36.993C61.0666 36.6859 60.7016 36.443 60.2998 36.2782C59.8981 36.1135 59.4676 36.0302 59.0333 36.0333C58.5978 36.0312 58.1661 36.1148 57.7628 36.2794C57.3596 36.4441 56.9927 36.6866 56.6832 36.993C56.0581 37.6119 55.7044 38.4537 55.7 39.3333C55.6956 40.213 56.0408 41.0583 56.6596 41.6835C57.2785 42.3086 58.1204 42.6623 59 42.6667Z" fill="#02051F"/>
<path d="M79 42.6667C80.8409 42.6667 82.3333 41.1743 82.3333 39.3333C82.3333 37.4924 80.8409 36 79 36C77.159 36 75.6667 37.4924 75.6667 39.3333C75.6667 41.1743 77.159 42.6667 79 42.6667Z" fill="#02051F"/>
<path d="M82.3333 52.6667H55.6667C53.0153 52.664 50.4733 51.6096 48.5985 49.7348C46.7237 47.86 45.6693 45.318 45.6667 42.6667V36C45.6693 33.3486 46.7237 30.8066 48.5985 28.9319C50.4733 27.0571 53.0153 26.0026 55.6667 26H82.3333C84.9847 26.0026 87.5267 27.0571 89.4015 28.9319C91.2763 30.8066 92.3307 33.3486 92.3333 36V42.6667C92.3307 45.318 91.2763 47.86 89.4015 49.7348C87.5267 51.6096 84.9847 52.664 82.3333 52.6667ZM55.6667 32.6667C54.7829 32.6675 53.9355 33.019 53.3106 33.644C52.6857 34.2689 52.3342 35.1162 52.3333 36V42.6667C52.3342 43.5505 52.6857 44.3978 53.3106 45.0227C53.9355 45.6476 54.7829 45.9991 55.6667 46H82.3333C83.2171 45.9991 84.0644 45.6476 84.6894 45.0227C85.3143 44.3978 85.6658 43.5505 85.6667 42.6667V36C85.6658 35.1162 85.3143 34.2689 84.6894 33.644C84.0644 33.019 83.2171 32.6675 82.3333 32.6667H55.6667Z" fill="#02051F"/>
</svg>
