<svg width="139" height="132" viewBox="0 0 139 132" fill="none" xmlns="http://www.w3.org/2000/svg">
<path d="M10.3112 33.5922L69.5 1.14044L128.689 33.5922V98.4078L69.5 130.86L10.3112 98.4078V33.5922Z" fill="#D9D9D9" stroke="#FFDF38" stroke-width="2"/>
<path d="M96.3333 58.6667L104.667 73.6667L96.3333 75.3333V85.3333H91.3333L81.3333 83.6667L79.6667 95.3333H54.6667L51.3333 78.0317C46.2 73.1717 43 66.2933 43 58.6667C43 43.9383 54.9383 32 69.6667 32C84.395 32 96.3333 43.9383 96.3333 58.6667Z" stroke="#0E1234" stroke-width="6.66667" stroke-linecap="round" stroke-linejoin="round"/>
<path d="M61.3333 55.3333C61.3333 53.6852 61.8221 52.074 62.7377 50.7036C63.6534 49.3332 64.9549 48.2651 66.4776 47.6343C68.0003 47.0036 69.6759 46.8386 71.2924 47.1601C72.9089 47.4817 74.3938 48.2753 75.5592 49.4408C76.7246 50.6062 77.5183 52.0911 77.8399 53.7076C78.1614 55.3241 77.9964 56.9996 77.3656 58.5224C76.7349 60.0451 75.6668 61.3466 74.2964 62.2623C72.926 63.1779 71.3148 63.6667 69.6666 63.6667V68.6667M69.6666 78.6667V80.3333" stroke="#0E1234" stroke-width="6.66667" stroke-linecap="round" stroke-linejoin="round"/>
</svg>
