<svg width="139" height="132" viewBox="0 0 139 132" fill="none" xmlns="http://www.w3.org/2000/svg">
<path d="M10.3112 33.5922L69.5 1.14044L128.689 33.5922V98.4078L69.5 130.86L10.3112 98.4078V33.5922Z" fill="#D9D9D9" stroke="#FFDF38" stroke-width="2"/>
<g clip-path="url(#clip0_221_57)">
<path d="M70 32.6667C71.25 32.6667 72.4834 32.7334 73.7 32.87C74.1351 32.9182 74.5565 33.0516 74.9401 33.2625C75.3236 33.4735 75.6619 33.758 75.9355 34.0997C76.2091 34.4415 76.4128 34.8337 76.5348 35.2542C76.6568 35.6746 76.6948 36.1149 76.6467 36.55C76.5985 36.9851 76.4652 37.4065 76.2542 37.7901C76.0432 38.1736 75.7587 38.5119 75.417 38.7855C75.0752 39.0591 74.683 39.2628 74.2626 39.3848C73.8421 39.5068 73.4018 39.5448 72.9667 39.4967C67.4735 38.8822 61.9251 39.9898 57.0889 42.6664C52.2528 45.343 48.3679 49.4563 45.9716 54.4373C43.5753 59.4184 42.786 65.0209 43.713 70.4701C44.64 75.9193 47.2373 80.9457 51.1458 84.8542C55.0543 88.7627 60.0808 91.3601 65.53 92.287C70.9791 93.214 76.5817 92.4248 81.5627 90.0285C86.5437 87.6322 90.657 83.7473 93.3336 78.9111C96.0102 74.0749 97.1179 68.5265 96.5034 63.0334C96.4552 62.5982 96.4932 62.1579 96.6152 61.7375C96.7373 61.3171 96.9409 60.9248 97.2145 60.5831C97.7671 59.8929 98.5713 59.4506 99.45 59.3534C100.329 59.2561 101.21 59.5119 101.9 60.0645C102.242 60.3382 102.526 60.6764 102.737 61.06C102.948 61.4435 103.082 61.8649 103.13 62.3C103.263 63.5167 103.333 64.75 103.333 66C103.333 84.41 88.41 99.3334 70 99.3334C51.59 99.3334 36.6667 84.41 36.6667 66C36.6667 47.59 51.59 32.6667 70 32.6667ZM69.8934 52.2567C70.113 53.1124 69.984 54.0204 69.5346 54.781C69.0852 55.5417 68.3522 56.0928 67.4967 56.3134C65.1463 56.9291 63.1001 58.3789 61.7401 60.3924C60.3802 62.4058 59.7992 64.8454 60.1057 67.2557C60.4122 69.666 61.5852 71.8825 63.4058 73.4915C65.2264 75.1005 67.5703 75.9922 70 76C72.2168 75.9991 74.3706 75.262 76.1232 73.9046C77.8758 72.5471 79.128 70.6462 79.6834 68.5C79.9044 67.6438 80.4565 66.9105 81.2182 66.4613C81.9799 66.0122 82.8888 65.884 83.745 66.105C84.6012 66.326 85.3346 66.8781 85.7837 67.6398C86.2329 68.4015 86.361 69.3105 86.14 70.1667C85.1174 74.0865 82.7028 77.4999 79.3472 79.7693C75.9916 82.0387 71.9246 83.0088 67.9059 82.4984C63.8872 81.988 60.1918 80.032 57.51 76.9958C54.8283 73.9596 53.3436 70.051 53.3334 66C53.3339 62.3049 54.5619 58.7147 56.8245 55.7933C59.087 52.8719 62.2559 50.7849 65.8334 49.86C66.2573 49.7507 66.6986 49.7261 67.1321 49.7874C67.5656 49.8487 67.9828 49.9948 68.3598 50.2174C68.7368 50.4399 69.0663 50.7346 69.3294 51.0845C69.5926 51.4344 69.7842 51.8327 69.8934 52.2567ZM91.68 33.09C92.2884 33.3423 92.8085 33.7691 93.1745 34.3167C93.5406 34.8643 93.7362 35.508 93.7367 36.1667V42.2667H99.8334C100.493 42.2668 101.137 42.4624 101.685 42.8287C102.233 43.195 102.66 43.7155 102.912 44.3245C103.165 44.9335 103.231 45.6036 103.102 46.2501C102.973 46.8966 102.656 47.4905 102.19 47.9567L90.4 59.7334C89.775 60.3585 88.9273 60.7098 88.0434 60.71H80L73.9067 66.8067C73.2812 67.4322 72.4329 67.7835 71.5484 67.7835C70.6638 67.7835 69.8155 67.4322 69.19 66.8067C68.5646 66.1812 68.2132 65.3329 68.2132 64.4484C68.2132 63.5638 68.5646 62.7155 69.19 62.09L75.2867 56V47.9534C75.2869 47.0694 75.6382 46.2217 76.2634 45.5967L88.0467 33.81C88.5128 33.3436 89.1069 33.0259 89.7536 32.8971C90.4004 32.7684 91.0708 32.8343 91.68 33.0867V33.09ZM87.07 44.2134L81.9534 49.3334V54.0467H86.6667L91.7867 48.93H90.4034C89.5193 48.93 88.6714 48.5788 88.0463 47.9537C87.4212 47.3286 87.07 46.4807 87.07 45.5967V44.2134Z" fill="black"/>
</g>
<defs>
<clipPath id="clip0_221_57">
<rect width="80" height="80" fill="white" transform="translate(30 26)"/>
</clipPath>
</defs>
</svg>
