<svg width="139" height="132" viewBox="0 0 139 132" fill="none" xmlns="http://www.w3.org/2000/svg">
<path d="M10.3112 33.5922L69.5 1.14044L128.689 33.5922V98.4078L69.5 130.86L10.3112 98.4078V33.5922Z" fill="#D9D9D9" stroke="#FFDF38" stroke-width="2"/>
<g clip-path="url(#clip0_211_50)">
<path d="M65.5335 65.5C65.5335 62.779 64.57 60.4559 62.6431 58.5307C60.7161 56.6055 58.3909 55.6429 55.6675 55.6429C52.9441 55.6429 50.6189 56.6055 48.6919 58.5307C46.765 60.4559 45.8015 62.779 45.8015 65.5C45.8015 68.221 46.765 70.5441 48.6919 72.4693C50.6189 74.3946 52.9441 75.3572 55.6675 75.3572C58.3909 75.3572 60.7161 74.3946 62.6431 72.4693C64.57 70.5441 65.5335 68.221 65.5335 65.5ZM95.1315 85.2143C95.1315 83.8795 94.6434 82.7243 93.667 81.7489C92.6907 80.7735 91.5345 80.2857 90.1985 80.2857C88.8625 80.2857 87.7063 80.7735 86.73 81.7489C85.7537 82.7243 85.2655 83.8795 85.2655 85.2143C85.2655 86.5748 85.7473 87.7363 86.7107 88.699C87.6742 89.6616 88.8368 90.1429 90.1985 90.1429C91.5602 90.1429 92.7228 89.6616 93.6863 88.699C94.6498 87.7363 95.1315 86.5748 95.1315 85.2143ZM95.1315 45.7857C95.1315 44.4509 94.6434 43.2958 93.667 42.3203C92.6907 41.3449 91.5345 40.8572 90.1985 40.8572C88.8625 40.8572 87.7063 41.3449 86.73 42.3203C85.7537 43.2958 85.2655 44.4509 85.2655 45.7857C85.2655 47.1462 85.7473 48.3078 86.7107 49.2704C87.6742 50.233 88.8368 50.7143 90.1985 50.7143C91.5602 50.7143 92.7228 50.233 93.6863 49.2704C94.6498 48.3078 95.1315 47.1462 95.1315 45.7857ZM80.3325 61.9961V69.1194C80.3325 69.3761 80.2426 69.6264 80.0627 69.8703C79.8829 70.1141 79.6774 70.2489 79.4461 70.2746L73.4726 71.1987C73.1899 72.0971 72.7789 73.0726 72.2393 74.125C73.1129 75.3572 74.269 76.8332 75.7078 78.553C75.8877 78.8354 75.9776 79.0921 75.9776 79.3231C75.9776 79.6312 75.8877 79.875 75.7078 80.0547C75.1169 80.8248 74.0571 81.9735 72.5283 83.5009C70.9996 85.0282 69.9912 85.7919 69.503 85.7919C69.2204 85.7919 68.9506 85.702 68.6937 85.5223L64.2617 82.0569C63.3111 82.5447 62.3219 82.9425 61.2942 83.2506C61.0116 86.0229 60.7161 88.0123 60.4078 89.2188C60.228 89.8348 59.8426 90.1429 59.2516 90.1429H52.0834C51.8007 90.1429 51.5438 90.0466 51.3126 89.8541C51.0813 89.6616 50.9529 89.437 50.9272 89.1803L50.0408 83.2891C49.1672 83.0324 48.2038 82.6345 47.1504 82.0954L42.6027 85.5223C42.4229 85.702 42.166 85.7919 41.832 85.7919C41.5493 85.7919 41.2796 85.6892 41.0226 85.4838C37.3229 82.0698 35.473 80.0162 35.473 79.3231C35.473 79.0921 35.5629 78.8482 35.7428 78.5915C35.9997 78.2322 36.5264 77.5519 37.3229 76.5508C38.1194 75.5497 38.7231 74.7668 39.1342 74.202C38.5433 73.0726 38.0937 72.0201 37.7854 71.0447L31.9274 70.1206C31.6705 70.0949 31.4521 69.973 31.2722 69.7548C31.0924 69.5366 31.0025 69.2863 31.0025 69.0039V61.8806C31.0025 61.6239 31.0924 61.3736 31.2722 61.1298C31.4521 60.8859 31.6576 60.7511 31.8889 60.7255L37.8624 59.8014C38.1451 58.9029 38.5561 57.9275 39.0957 56.875C38.2221 55.6429 37.066 54.1669 35.6272 52.447C35.4473 52.1646 35.3574 51.9079 35.3574 51.6769C35.3574 51.3689 35.4473 51.1122 35.6272 50.9068C36.1924 50.1367 37.2458 48.9944 38.7874 47.4799C40.3289 45.9654 41.3438 45.2082 41.832 45.2082C42.1146 45.2082 42.3844 45.298 42.6413 45.4777L47.0733 48.9431C47.9468 48.481 48.936 48.0703 50.0408 47.711C50.3234 44.9386 50.6189 42.9621 50.9272 41.7813C51.107 41.1652 51.4924 40.8572 52.0834 40.8572H59.2516C59.5343 40.8572 59.7912 40.9534 60.0224 41.1459C60.2536 41.3385 60.3821 41.5631 60.4078 41.8198L61.2942 47.711C62.1678 47.9677 63.1312 48.3655 64.1846 48.9046L68.7322 45.4777C68.9378 45.298 69.1947 45.2082 69.503 45.2082C69.7856 45.2082 70.0554 45.3108 70.3124 45.5162C74.0121 48.9303 75.862 50.9838 75.862 51.6769C75.862 51.8823 75.7721 52.1261 75.5922 52.4085C75.2839 52.8192 74.7443 53.5123 73.9736 54.4877C73.2028 55.4632 72.6247 56.2333 72.2393 56.798C72.8302 58.0302 73.267 59.0826 73.5496 59.9554L79.4076 60.841C79.6645 60.8923 79.8829 61.0271 80.0627 61.2453C80.2426 61.4635 80.3325 61.7137 80.3325 61.9961ZM104.998 82.519V87.9096C104.998 88.3203 103.083 88.7182 99.2552 89.1033C98.9469 89.7963 98.5615 90.4637 98.099 91.1055C99.4094 94.0062 100.065 95.7774 100.065 96.4191C100.065 96.5218 100.013 96.6116 99.9104 96.6886C96.7759 98.5112 95.1829 99.4225 95.1315 99.4225C94.926 99.4225 94.3351 98.8192 93.3587 97.6127C92.3824 96.4063 91.7144 95.5335 91.3547 94.9944C90.8408 95.0458 90.4555 95.0714 90.1985 95.0714C89.9416 95.0714 89.5562 95.0458 89.0424 94.9944C88.6827 95.5335 88.0146 96.4063 87.0383 97.6127C86.062 98.8192 85.4711 99.4225 85.2655 99.4225C85.2141 99.4225 83.6212 98.5112 80.4867 96.6886C80.3839 96.6116 80.3325 96.5218 80.3325 96.4191C80.3325 95.7774 80.9877 94.0062 82.298 91.1055C81.8355 90.4637 81.4501 89.7963 81.1418 89.1033C77.3136 88.7182 75.3995 88.3203 75.3995 87.9096V82.519C75.3995 82.1083 77.3136 81.7104 81.1418 81.3254C81.4758 80.5809 81.8612 79.9135 82.298 79.3231C80.9877 76.4225 80.3325 74.6512 80.3325 74.0095C80.3325 73.9068 80.3839 73.817 80.4867 73.74C80.5894 73.6886 81.0391 73.4319 81.8355 72.9699C82.632 72.5078 83.3899 72.0714 84.1093 71.6607C84.8287 71.25 85.2141 71.0447 85.2655 71.0447C85.4711 71.0447 86.062 71.6415 87.0383 72.8351C88.0146 74.0288 88.6827 74.8951 89.0424 75.4342C89.5562 75.3828 89.9416 75.3572 90.1985 75.3572C90.4555 75.3572 90.8408 75.3828 91.3547 75.4342C92.665 73.6116 93.8469 72.1741 94.9003 71.1217L95.1315 71.0447C95.2343 71.0447 96.8272 71.9431 99.9104 73.74C100.013 73.817 100.065 73.9068 100.065 74.0095C100.065 74.6512 99.4094 76.4225 98.099 79.3231C98.5358 79.9135 98.9212 80.5809 99.2552 81.3254C103.083 81.7104 104.998 82.1083 104.998 82.519ZM104.998 43.0904V48.481C104.998 48.8918 103.083 49.2896 99.2552 49.6747C98.9469 50.3678 98.5615 51.0352 98.099 51.6769C99.4094 54.5776 100.065 56.3488 100.065 56.9905C100.065 57.0932 100.013 57.1831 99.9104 57.2601C96.7759 59.0826 95.1829 59.9939 95.1315 59.9939C94.926 59.9939 94.3351 59.3906 93.3587 58.1842C92.3824 56.9777 91.7144 56.1049 91.3547 55.5659C90.8408 55.6172 90.4555 55.6429 90.1985 55.6429C89.9416 55.6429 89.5562 55.6172 89.0424 55.5659C88.6827 56.1049 88.0146 56.9777 87.0383 58.1842C86.062 59.3906 85.4711 59.9939 85.2655 59.9939C85.2141 59.9939 83.6212 59.0826 80.4867 57.2601C80.3839 57.1831 80.3325 57.0932 80.3325 56.9905C80.3325 56.3488 80.9877 54.5776 82.298 51.6769C81.8355 51.0352 81.4501 50.3678 81.1418 49.6747C77.3136 49.2896 75.3995 48.8918 75.3995 48.481V43.0904C75.3995 42.6797 77.3136 42.2818 81.1418 41.8968C81.4758 41.1524 81.8612 40.485 82.298 39.8945C80.9877 36.9939 80.3325 35.2227 80.3325 34.5809C80.3325 34.4783 80.3839 34.3884 80.4867 34.3114C80.5894 34.2601 81.0391 34.0034 81.8355 33.5413C82.632 33.0793 83.3899 32.6429 84.1093 32.2322C84.8287 31.8214 85.2141 31.6161 85.2655 31.6161C85.4711 31.6161 86.062 32.2129 87.0383 33.4065C88.0146 34.6002 88.6827 35.4665 89.0424 36.0056C89.5562 35.9543 89.9416 35.9286 90.1985 35.9286C90.4555 35.9286 90.8408 35.9543 91.3547 36.0056C92.665 34.1831 93.8469 32.7456 94.9003 31.6931L95.1315 31.6161C95.2343 31.6161 96.8272 32.5145 99.9104 34.3114C100.013 34.3884 100.065 34.4783 100.065 34.5809C100.065 35.2227 99.4094 36.9939 98.099 39.8945C98.5358 40.485 98.9212 41.1524 99.2552 41.8968C103.083 42.2818 104.998 42.6797 104.998 43.0904Z" fill="#0E1234"/>
</g>
<defs>
<clipPath id="clip0_211_50">
<rect width="74" height="69" fill="white" transform="translate(31 31)"/>
</clipPath>
</defs>
</svg>
